<svg width="17" height="17" viewBox="0 0 17 17" fill="none" xmlns="http://www.w3.org/2000/svg">
<path d="M4.25 15.5834V2.83341C4.25 2.45769 4.39926 2.09736 4.66493 1.83168C4.93061 1.566 5.29094 1.41675 5.66667 1.41675H11.3333C11.7091 1.41675 12.0694 1.566 12.3351 1.83168C12.6007 2.09736 12.75 2.45769 12.75 2.83341V15.5834H4.25Z" stroke="white" stroke-width="1.41667" stroke-linecap="round" stroke-linejoin="round"/>
<path d="M4.24999 8.5H2.83332C2.4576 8.5 2.09726 8.64926 1.83159 8.91493C1.56591 9.18061 1.41666 9.54094 1.41666 9.91667V14.1667C1.41666 14.5424 1.56591 14.9027 1.83159 15.1684C2.09726 15.4341 2.4576 15.5833 2.83332 15.5833H4.24999" stroke="white" stroke-width="1.41667" stroke-linecap="round" stroke-linejoin="round"/>
<path d="M12.75 6.375H14.1667C14.5424 6.375 14.9027 6.52426 15.1684 6.78993C15.4341 7.05561 15.5833 7.41594 15.5833 7.79167V14.1667C15.5833 14.5424 15.4341 14.9027 15.1684 15.1684C14.9027 15.4341 14.5424 15.5833 14.1667 15.5833H12.75" stroke="white" stroke-width="1.41667" stroke-linecap="round" stroke-linejoin="round"/>
<path d="M7.08334 4.25H9.91668" stroke="white" stroke-width="1.41667" stroke-linecap="round" stroke-linejoin="round"/>
<path d="M7.08334 7.08325H9.91668" stroke="white" stroke-width="1.41667" stroke-linecap="round" stroke-linejoin="round"/>
<path d="M7.08334 9.91675H9.91668" stroke="white" stroke-width="1.41667" stroke-linecap="round" stroke-linejoin="round"/>
<path d="M7.08334 12.75H9.91668" stroke="white" stroke-width="1.41667" stroke-linecap="round" stroke-linejoin="round"/>
</svg>
